# xmcd CD database file
#
# Track frame offsets:
#	150
#	3600
#	23641
#	42018
#	60025
#	78520
#	97341
#	118543
#	138587
#	158060
#	160061
#	177536
#	197940
#	217725
#
# Disc length: 3175 seconds
#
# Revision: 0
# Processed by: cddbd v1.5.1PL0 Copyright (c) Steve Scherf et al.
# Submitted via: CDex 1.50beta10
#
DISCID=b20c650e
DTITLE=MANOU - Fantastik
DYEAR=1900
DGENRE=Musique Religieuse
TTITLE0=Introlomik
TTITLE1=Je veux croire
TTITLE2=Le temps est passé
TTITLE3=Le sacrifice
TTITLE4=Fantastik
TTITLE5=Senor Jésus
TTITLE6=Si je l'avais écouté
TTITLE7=A la vitesse grand V
TTITLE8=Où vais-je demeurer ?
TTITLE9=Zergaterlude
TTITLE10=Jésus t'aime
TTITLE11=Pares au combat
TTITLE12=Manifik
TTITLE13=Louange et gloire
EXTD=
EXTT0=
EXTT1=
EXTT2=
EXTT3=
EXTT4=
EXTT5=
EXTT6=
EXTT7=
EXTT8=
EXTT9=
EXTT10=
EXTT11=
EXTT12=
EXTT13=
PLAYORDER=
